<svg xmlns="http://www.w3.org/2000/svg" viewBox="0 0 1440 540" preserveAspectRatio="xMidYMax slice" role="img" aria-label="Sunlit coral-reef garden"><defs><linearGradient id="bWater" x1="0" y1="0" x2="0" y2="1"><stop offset="0" stop-color="#073b4c"></stop><stop offset="1" stop-color="#0a4a5e"></stop></linearGradient></defs><rect width="1440" height="540" fill="url(#bWater)"></rect><g opacity="0.5"><polygon points="120,-20 240,-20 170,540 90,540" fill="rgba(255,255,255,0.05)"></polygon><polygon points="430,-20 520,-20 470,520 400,520" fill="rgba(255,255,255,0.04)"></polygon><polygon points="720,-20 800,-20 770,500 700,500" fill="rgba(255,255,255,0.045)"></polygon><polygon points="1000,-20 1110,-20 1050,520 960,520" fill="rgba(255,255,255,0.04)"></polygon><polygon points="1250,-20 1330,-20 1300,500 1230,500" fill="rgba(255,255,255,0.05)"></polygon></g><circle class="reef-bubble" style="--rise:-89px;animation-duration:6.4s;animation-delay:-3.7s" cx="1207.3" cy="359.6" r="5.0" fill="none" stroke="rgba(255,255,255,0.22)" stroke-width="1.5"></circle><circle class="reef-bubble" style="--rise:-63px;animation-duration:7.0s;animation-delay:-7.1s" cx="1064.9" cy="293.5" r="2.6" fill="none" stroke="rgba(255,255,255,0.22)" stroke-width="1.5"></circle><circle class="reef-bubble" style="--rise:-94px;animation-duration:7.4s;animation-delay:-7.5s" cx="1408.2" cy="387.4" r="4.1" fill="none" stroke="rgba(255,255,255,0.22)" stroke-width="1.5"></circle><circle class="reef-bubble" style="--rise:-76px;animation-duration:9.3s;animation-delay:-0.4s" cx="228.4" cy="413.0" r="2.5" fill="none" stroke="rgba(255,255,255,0.22)" stroke-width="1.5"></circle><circle class="reef-bubble" style="--rise:-94px;animation-duration:6.9s;animation-delay:-8.8s" cx="580.2" cy="417.5" r="6.0" fill="none" stroke="rgba(255,255,255,0.22)" stroke-width="1.5"></circle><circle class="reef-bubble" style="--rise:-65px;animation-duration:8.0s;animation-delay:-3.5s" cx="680.1" cy="264.9" r="2.1" fill="none" stroke="rgba(255,255,255,0.22)" stroke-width="1.5"></circle><circle class="reef-bubble" style="--rise:-52px;animation-duration:11.6s;animation-delay:-7.3s" cx="634.8" cy="367.7" r="6.0" fill="none" stroke="rgba(255,255,255,0.22)" stroke-width="1.5"></circle><circle class="reef-bubble" style="--rise:-72px;animation-duration:9.8s;animation-delay:-5.1s" cx="1408.1" cy="363.7" r="7.3" fill="none" stroke="rgba(255,255,255,0.22)" stroke-width="1.5"></circle><circle class="reef-bubble" style="--rise:-80px;animation-duration:6.8s;animation-delay:-5.4s" cx="442.5" cy="416.5" r="2.9" fill="none" stroke="rgba(255,255,255,0.22)" stroke-width="1.5"></circle><circle class="reef-bubble" style="--rise:-74px;animation-duration:8.6s;animation-delay:-7.2s" cx="331.7" cy="328.5" r="7.9" fill="none" stroke="rgba(255,255,255,0.22)" stroke-width="1.5"></circle><circle class="reef-bubble" style="--rise:-90px;animation-duration:8.0s;animation-delay:-3.9s" cx="485.4" cy="323.8" r="6.8" fill="none" stroke="rgba(255,255,255,0.22)" stroke-width="1.5"></circle><circle class="reef-bubble" style="--rise:-72px;animation-duration:9.7s;animation-delay:-4.1s" cx="229.6" cy="357.3" r="2.6" fill="none" stroke="rgba(255,255,255,0.22)" stroke-width="1.5"></circle><circle class="reef-bubble" style="--rise:-83px;animation-duration:6.7s;animation-delay:-4.7s" cx="599.4" cy="358.0" r="3.8" fill="none" stroke="rgba(255,255,255,0.22)" stroke-width="1.5"></circle><circle class="reef-bubble" style="--rise:-58px;animation-duration:7.3s;animation-delay:-5.3s" cx="842.5" cy="390.1" r="4.8" fill="none" stroke="rgba(255,255,255,0.22)" stroke-width="1.5"></circle><circle class="reef-bubble" style="--rise:-81px;animation-duration:9.8s;animation-delay:-1.3s" cx="304.3" cy="418.9" r="3.4" fill="none" stroke="rgba(255,255,255,0.22)" stroke-width="1.5"></circle><circle class="reef-bubble" style="--rise:-88px;animation-duration:10.1s;animation-delay:-4.1s" cx="903.4" cy="250.2" r="5.7" fill="none" stroke="rgba(255,255,255,0.22)" stroke-width="1.5"></circle><circle class="reef-bubble" style="--rise:-59px;animation-duration:7.2s;animation-delay:-6.0s" cx="917.7" cy="383.8" r="8.5" fill="none" stroke="rgba(255,255,255,0.22)" stroke-width="1.5"></circle><circle class="reef-bubble" style="--rise:-94px;animation-duration:11.9s;animation-delay:-5.2s" cx="1257.9" cy="435.7" r="4.0" fill="none" stroke="rgba(255,255,255,0.22)" stroke-width="1.5"></circle><circle class="reef-bubble" style="--rise:-66px;animation-duration:11.3s;animation-delay:-2.6s" cx="1230.1" cy="448.1" r="4.0" fill="none" stroke="rgba(255,255,255,0.22)" stroke-width="1.5"></circle><circle class="reef-bubble" style="--rise:-87px;animation-duration:6.6s;animation-delay:-0.1s" cx="574.6" cy="341.2" r="5.1" fill="none" stroke="rgba(255,255,255,0.22)" stroke-width="1.5"></circle><circle class="reef-bubble" style="--rise:-90px;animation-duration:9.0s;animation-delay:-2.1s" cx="489.8" cy="362.2" r="6.4" fill="none" stroke="rgba(255,255,255,0.22)" stroke-width="1.5"></circle><circle class="reef-bubble" style="--rise:-68px;animation-duration:7.7s;animation-delay:-4.0s" cx="983.3" cy="270.4" r="5.1" fill="none" stroke="rgba(255,255,255,0.22)" stroke-width="1.5"></circle><circle class="reef-bubble" style="--rise:-57px;animation-duration:9.2s;animation-delay:-7.2s" cx="363.3" cy="301.9" r="7.1" fill="none" stroke="rgba(255,255,255,0.22)" stroke-width="1.5"></circle><circle class="reef-bubble" style="--rise:-77px;animation-duration:9.1s;animation-delay:-2.2s" cx="404.5" cy="423.2" r="6.3" fill="none" stroke="rgba(255,255,255,0.22)" stroke-width="1.5"></circle><circle class="reef-bubble" style="--rise:-55px;animation-duration:7.5s;animation-delay:-2.0s" cx="410.3" cy="317.0" r="8.4" fill="none" stroke="rgba(255,255,255,0.22)" stroke-width="1.5"></circle><circle class="reef-bubble" style="--rise:-52px;animation-duration:11.9s;animation-delay:-6.1s" cx="584.6" cy="302.5" r="5.2" fill="none" stroke="rgba(255,255,255,0.22)" stroke-width="1.5"></circle><circle class="reef-bubble" style="--rise:-71px;animation-duration:10.4s;animation-delay:-0.5s" cx="1355.8" cy="411.6" r="4.9" fill="none" stroke="rgba(255,255,255,0.22)" stroke-width="1.5"></circle><circle class="reef-bubble" style="--rise:-91px;animation-duration:8.1s;animation-delay:-5.7s" cx="921.5" cy="412.7" r="6.7" fill="none" stroke="rgba(255,255,255,0.22)" stroke-width="1.5"></circle><circle class="reef-bubble" style="--rise:-51px;animation-duration:6.3s;animation-delay:-5.2s" cx="922.2" cy="441.8" r="4.7" fill="none" stroke="rgba(255,255,255,0.22)" stroke-width="1.5"></circle><circle class="reef-bubble" style="--rise:-68px;animation-duration:10.2s;animation-delay:-0.1s" cx="169.2" cy="413.6" r="3.3" fill="none" stroke="rgba(255,255,255,0.22)" stroke-width="1.5"></circle><circle class="reef-bubble" style="--rise:-57px;animation-duration:7.8s;animation-delay:-4.8s" cx="118.6" cy="272.7" r="4.5" fill="none" stroke="rgba(255,255,255,0.22)" stroke-width="1.5"></circle><circle class="reef-bubble" style="--rise:-63px;animation-duration:7.6s;animation-delay:-4.7s" cx="868.1" cy="412.0" r="2.5" fill="none" stroke="rgba(255,255,255,0.22)" stroke-width="1.5"></circle><circle class="reef-bubble" style="--rise:-49px;animation-duration:6.4s;animation-delay:-8.1s" cx="1109.2" cy="375.1" r="5.4" fill="none" stroke="rgba(255,255,255,0.22)" stroke-width="1.5"></circle><circle class="reef-bubble" style="--rise:-90px;animation-duration:8.9s;animation-delay:-7.4s" cx="636.8" cy="437.8" r="5.3" fill="none" stroke="rgba(255,255,255,0.22)" stroke-width="1.5"></circle><circle class="reef-bubble" style="--rise:-80px;animation-duration:7.5s;animation-delay:-6.3s" cx="827.5" cy="382.2" r="6.9" fill="none" stroke="rgba(255,255,255,0.22)" stroke-width="1.5"></circle><circle class="reef-bubble" style="--rise:-57px;animation-duration:8.8s;animation-delay:-6.6s" cx="1057.0" cy="391.1" r="7.0" fill="none" stroke="rgba(255,255,255,0.22)" stroke-width="1.5"></circle><circle class="reef-bubble" style="--rise:-90px;animation-duration:11.8s;animation-delay:-0.2s" cx="224.0" cy="326.1" r="7.1" fill="none" stroke="rgba(255,255,255,0.22)" stroke-width="1.5"></circle><circle class="reef-bubble" style="--rise:-66px;animation-duration:11.5s;animation-delay:-4.2s" cx="682.8" cy="306.0" r="7.6" fill="none" stroke="rgba(255,255,255,0.22)" stroke-width="1.5"></circle><circle class="reef-bubble" style="--rise:-49px;animation-duration:9.9s;animation-delay:-7.3s" cx="652.3" cy="467.2" r="7.8" fill="none" stroke="rgba(255,255,255,0.22)" stroke-width="1.5"></circle><circle class="reef-bubble" style="--rise:-93px;animation-duration:10.3s;animation-delay:-3.4s" cx="1248.7" cy="440.0" r="4.8" fill="none" stroke="rgba(255,255,255,0.22)" stroke-width="1.5"></circle><circle class="reef-bubble" style="--rise:-77px;animation-duration:8.4s;animation-delay:-5.1s" cx="361.3" cy="444.7" r="3.4" fill="none" stroke="rgba(255,255,255,0.22)" stroke-width="1.5"></circle><circle class="reef-bubble" style="--rise:-64px;animation-duration:10.2s;animation-delay:-7.1s" cx="1380.1" cy="371.4" r="3.1" fill="none" stroke="rgba(255,255,255,0.22)" stroke-width="1.5"></circle><circle class="reef-bubble" style="--rise:-86px;animation-duration:11.4s;animation-delay:-7.8s" cx="1397.9" cy="394.4" r="6.0" fill="none" stroke="rgba(255,255,255,0.22)" stroke-width="1.5"></circle><circle class="reef-bubble" style="--rise:-59px;animation-duration:10.1s;animation-delay:-0.7s" cx="1229.9" cy="290.3" r="2.2" fill="none" stroke="rgba(255,255,255,0.22)" stroke-width="1.5"></circle><circle class="reef-bubble" style="--rise:-57px;animation-duration:8.0s;animation-delay:-3.3s" cx="140.8" cy="408.6" r="6.1" fill="none" stroke="rgba(255,255,255,0.22)" stroke-width="1.5"></circle><circle class="reef-bubble" style="--rise:-71px;animation-duration:10.2s;animation-delay:-3.4s" cx="402.5" cy="338.2" r="5.4" fill="none" stroke="rgba(255,255,255,0.22)" stroke-width="1.5"></circle><path d="M0,540 L0,466 Q240,440 480,466 Q760,494 1040,462 Q1260,446 1440,470 L1440,540 Z" fill="#e4c7a8"></path><path d="M0,540 L0,500 Q220,478 460,502 Q740,526 1020,500 Q1240,484 1440,506 L1440,540 Z" fill="#efdac2"></path><path d="M30,522 q6.8,-52 85,-52 q78.2,0 85,52 Z" fill="#9fe6d2"></path><path d="M380,520 q8,-60 100,-60 q92,0 100,60 Z" fill="#f9cfa6"></path><path d="M740,524 q7.2,-54 90,-54 q82.8,0 90,54 Z" fill="#9fe6d2"></path><path d="M1080,520 q8.4,-58 105,-58 q96.60000000000001,0 105,58 Z" fill="#f9cfa6"></path><path d="M1330,524 q6,-48 75,-48 q69,0 75,48 Z" fill="#9fe6d2"></path><g transform="translate(110,506) scale(0.9)"><g class="reef-sway" style="animation-delay:-0.0s"><path d="M0,0 Q-25.6,-29.0 -63.9,-52.8" fill="none" stroke="#f4a6bd" stroke-width="4.5" stroke-linecap="round"></path><path d="M0,0 Q-20.9,-37.6 -52.2,-68.4" fill="none" stroke="#f4a6bd" stroke-width="4.5" stroke-linecap="round"></path><path d="M0,0 Q-15.1,-44.3 -37.8,-80.5" fill="none" stroke="#f4a6bd" stroke-width="4.5" stroke-linecap="round"></path><path d="M0,0 Q-8.6,-48.6 -21.5,-88.4" fill="none" stroke="#f4a6bd" stroke-width="4.5" stroke-linecap="round"></path><path d="M0,0 Q-1.6,-50.5 -4.1,-91.9" fill="none" stroke="#f4a6bd" stroke-width="4.5" stroke-linecap="round"></path><path d="M0,0 Q5.4,-49.8 13.5,-90.6" fill="none" stroke="#f4a6bd" stroke-width="4.5" stroke-linecap="round"></path><path d="M0,0 Q12.2,-46.6 30.5,-84.7" fill="none" stroke="#f4a6bd" stroke-width="4.5" stroke-linecap="round"></path><path d="M0,0 Q18.3,-40.9 45.8,-74.4" fill="none" stroke="#f4a6bd" stroke-width="4.5" stroke-linecap="round"></path><path d="M0,0 Q23.5,-33.2 58.9,-60.4" fill="none" stroke="#f4a6bd" stroke-width="4.5" stroke-linecap="round"></path></g></g><g transform="translate(330,500) scale(0.8)"><g class="reef-sway" style="animation-delay:-0.0s"><path d="M0,0 Q-25.6,-29.0 -63.9,-52.8" fill="none" stroke="#8fcfe6" stroke-width="4.5" stroke-linecap="round"></path><path d="M0,0 Q-20.9,-37.6 -52.2,-68.4" fill="none" stroke="#8fcfe6" stroke-width="4.5" stroke-linecap="round"></path><path d="M0,0 Q-15.1,-44.3 -37.8,-80.5" fill="none" stroke="#8fcfe6" stroke-width="4.5" stroke-linecap="round"></path><path d="M0,0 Q-8.6,-48.6 -21.5,-88.4" fill="none" stroke="#8fcfe6" stroke-width="4.5" stroke-linecap="round"></path><path d="M0,0 Q-1.6,-50.5 -4.1,-91.9" fill="none" stroke="#8fcfe6" stroke-width="4.5" stroke-linecap="round"></path><path d="M0,0 Q5.4,-49.8 13.5,-90.6" fill="none" stroke="#8fcfe6" stroke-width="4.5" stroke-linecap="round"></path><path d="M0,0 Q12.2,-46.6 30.5,-84.7" fill="none" stroke="#8fcfe6" stroke-width="4.5" stroke-linecap="round"></path><path d="M0,0 Q18.3,-40.9 45.8,-74.4" fill="none" stroke="#8fcfe6" stroke-width="4.5" stroke-linecap="round"></path><path d="M0,0 Q23.5,-33.2 58.9,-60.4" fill="none" stroke="#8fcfe6" stroke-width="4.5" stroke-linecap="round"></path></g></g><g transform="translate(600,508) scale(0.95)"><g class="reef-sway" style="animation-delay:-0.0s"><path d="M0,0 Q-25.6,-29.0 -63.9,-52.8" fill="none" stroke="#c7b9e8" stroke-width="4.5" stroke-linecap="round"></path><path d="M0,0 Q-20.9,-37.6 -52.2,-68.4" fill="none" stroke="#c7b9e8" stroke-width="4.5" stroke-linecap="round"></path><path d="M0,0 Q-15.1,-44.3 -37.8,-80.5" fill="none" stroke="#c7b9e8" stroke-width="4.5" stroke-linecap="round"></path><path d="M0,0 Q-8.6,-48.6 -21.5,-88.4" fill="none" stroke="#c7b9e8" stroke-width="4.5" stroke-linecap="round"></path><path d="M0,0 Q-1.6,-50.5 -4.1,-91.9" fill="none" stroke="#c7b9e8" stroke-width="4.5" stroke-linecap="round"></path><path d="M0,0 Q5.4,-49.8 13.5,-90.6" fill="none" stroke="#c7b9e8" stroke-width="4.5" stroke-linecap="round"></path><path d="M0,0 Q12.2,-46.6 30.5,-84.7" fill="none" stroke="#c7b9e8" stroke-width="4.5" stroke-linecap="round"></path><path d="M0,0 Q18.3,-40.9 45.8,-74.4" fill="none" stroke="#c7b9e8" stroke-width="4.5" stroke-linecap="round"></path><path d="M0,0 Q23.5,-33.2 58.9,-60.4" fill="none" stroke="#c7b9e8" stroke-width="4.5" stroke-linecap="round"></path></g></g><g transform="translate(860,502) scale(0.85)"><g class="reef-sway" style="animation-delay:-0.0s"><path d="M0,0 Q-25.6,-29.0 -63.9,-52.8" fill="none" stroke="#f4a6bd" stroke-width="4.5" stroke-linecap="round"></path><path d="M0,0 Q-20.9,-37.6 -52.2,-68.4" fill="none" stroke="#f4a6bd" stroke-width="4.5" stroke-linecap="round"></path><path d="M0,0 Q-15.1,-44.3 -37.8,-80.5" fill="none" stroke="#f4a6bd" stroke-width="4.5" stroke-linecap="round"></path><path d="M0,0 Q-8.6,-48.6 -21.5,-88.4" fill="none" stroke="#f4a6bd" stroke-width="4.5" stroke-linecap="round"></path><path d="M0,0 Q-1.6,-50.5 -4.1,-91.9" fill="none" stroke="#f4a6bd" stroke-width="4.5" stroke-linecap="round"></path><path d="M0,0 Q5.4,-49.8 13.5,-90.6" fill="none" stroke="#f4a6bd" stroke-width="4.5" stroke-linecap="round"></path><path d="M0,0 Q12.2,-46.6 30.5,-84.7" fill="none" stroke="#f4a6bd" stroke-width="4.5" stroke-linecap="round"></path><path d="M0,0 Q18.3,-40.9 45.8,-74.4" fill="none" stroke="#f4a6bd" stroke-width="4.5" stroke-linecap="round"></path><path d="M0,0 Q23.5,-33.2 58.9,-60.4" fill="none" stroke="#f4a6bd" stroke-width="4.5" stroke-linecap="round"></path></g></g><g transform="translate(1120,506) scale(0.9)"><g class="reef-sway" style="animation-delay:-0.0s"><path d="M0,0 Q-25.6,-29.0 -63.9,-52.8" fill="none" stroke="#8fcfe6" stroke-width="4.5" stroke-linecap="round"></path><path d="M0,0 Q-20.9,-37.6 -52.2,-68.4" fill="none" stroke="#8fcfe6" stroke-width="4.5" stroke-linecap="round"></path><path d="M0,0 Q-15.1,-44.3 -37.8,-80.5" fill="none" stroke="#8fcfe6" stroke-width="4.5" stroke-linecap="round"></path><path d="M0,0 Q-8.6,-48.6 -21.5,-88.4" fill="none" stroke="#8fcfe6" stroke-width="4.5" stroke-linecap="round"></path><path d="M0,0 Q-1.6,-50.5 -4.1,-91.9" fill="none" stroke="#8fcfe6" stroke-width="4.5" stroke-linecap="round"></path><path d="M0,0 Q5.4,-49.8 13.5,-90.6" fill="none" stroke="#8fcfe6" stroke-width="4.5" stroke-linecap="round"></path><path d="M0,0 Q12.2,-46.6 30.5,-84.7" fill="none" stroke="#8fcfe6" stroke-width="4.5" stroke-linecap="round"></path><path d="M0,0 Q18.3,-40.9 45.8,-74.4" fill="none" stroke="#8fcfe6" stroke-width="4.5" stroke-linecap="round"></path><path d="M0,0 Q23.5,-33.2 58.9,-60.4" fill="none" stroke="#8fcfe6" stroke-width="4.5" stroke-linecap="round"></path></g></g><g transform="translate(1360,500) scale(0.78)"><g class="reef-sway" style="animation-delay:-0.0s"><path d="M0,0 Q-25.6,-29.0 -63.9,-52.8" fill="none" stroke="#c7b9e8" stroke-width="4.5" stroke-linecap="round"></path><path d="M0,0 Q-20.9,-37.6 -52.2,-68.4" fill="none" stroke="#c7b9e8" stroke-width="4.5" stroke-linecap="round"></path><path d="M0,0 Q-15.1,-44.3 -37.8,-80.5" fill="none" stroke="#c7b9e8" stroke-width="4.5" stroke-linecap="round"></path><path d="M0,0 Q-8.6,-48.6 -21.5,-88.4" fill="none" stroke="#c7b9e8" stroke-width="4.5" stroke-linecap="round"></path><path d="M0,0 Q-1.6,-50.5 -4.1,-91.9" fill="none" stroke="#c7b9e8" stroke-width="4.5" stroke-linecap="round"></path><path d="M0,0 Q5.4,-49.8 13.5,-90.6" fill="none" stroke="#c7b9e8" stroke-width="4.5" stroke-linecap="round"></path><path d="M0,0 Q12.2,-46.6 30.5,-84.7" fill="none" stroke="#c7b9e8" stroke-width="4.5" stroke-linecap="round"></path><path d="M0,0 Q18.3,-40.9 45.8,-74.4" fill="none" stroke="#c7b9e8" stroke-width="4.5" stroke-linecap="round"></path><path d="M0,0 Q23.5,-33.2 58.9,-60.4" fill="none" stroke="#c7b9e8" stroke-width="4.5" stroke-linecap="round"></path></g></g><g transform="translate(220,510) scale(1)"><g class="reef-sway" style="animation-delay:-2.8s"><path d="M0,0 C-2,-40 -18,-52 -16,-92 M0,0 C2,-46 16,-58 14,-104 M0,0 C0,-30 -2,-70 -2,-120 M-16,-92 C-26,-100 -30,-116 -40,-122 M14,-104 C24,-112 30,-126 40,-130 M-2,-120 C-2,-140 -10,-150 -10,-168 M-2,-120 C-2,-140 8,-150 10,-166" fill="none" stroke="#f7b99e" stroke-width="9" stroke-linecap="round"></path></g></g><g transform="translate(500,505) scale(0.85)"><g class="reef-sway" style="animation-delay:-1.4s"><path d="M0,0 C-2,-40 -18,-52 -16,-92 M0,0 C2,-46 16,-58 14,-104 M0,0 C0,-30 -2,-70 -2,-120 M-16,-92 C-26,-100 -30,-116 -40,-122 M14,-104 C24,-112 30,-126 40,-130 M-2,-120 C-2,-140 -10,-150 -10,-168 M-2,-120 C-2,-140 8,-150 10,-166" fill="none" stroke="#ffe0a0" stroke-width="9" stroke-linecap="round"></path></g></g><g transform="translate(720,510) scale(0.95)"><g class="reef-sway" style="animation-delay:-0.0s"><path d="M0,0 C-2,-40 -18,-52 -16,-92 M0,0 C2,-46 16,-58 14,-104 M0,0 C0,-30 -2,-70 -2,-120 M-16,-92 C-26,-100 -30,-116 -40,-122 M14,-104 C24,-112 30,-126 40,-130 M-2,-120 C-2,-140 -10,-150 -10,-168 M-2,-120 C-2,-140 8,-150 10,-166" fill="none" stroke="#f7b99e" stroke-width="9" stroke-linecap="round"></path></g></g><g transform="translate(1000,505) scale(0.9)"><g class="reef-sway" style="animation-delay:-2.8s"><path d="M0,0 C-2,-40 -18,-52 -16,-92 M0,0 C2,-46 16,-58 14,-104 M0,0 C0,-30 -2,-70 -2,-120 M-16,-92 C-26,-100 -30,-116 -40,-122 M14,-104 C24,-112 30,-126 40,-130 M-2,-120 C-2,-140 -10,-150 -10,-168 M-2,-120 C-2,-140 8,-150 10,-166" fill="none" stroke="#ffe0a0" stroke-width="9" stroke-linecap="round"></path></g></g><g transform="translate(1240,508) scale(0.95)"><g class="reef-sway" style="animation-delay:-2.8s"><path d="M0,0 C-2,-40 -18,-52 -16,-92 M0,0 C2,-46 16,-58 14,-104 M0,0 C0,-30 -2,-70 -2,-120 M-16,-92 C-26,-100 -30,-116 -40,-122 M14,-104 C24,-112 30,-126 40,-130 M-2,-120 C-2,-140 -10,-150 -10,-168 M-2,-120 C-2,-140 8,-150 10,-166" fill="none" stroke="#f7b99e" stroke-width="9" stroke-linecap="round"></path></g></g><g transform="translate(170,512) scale(1.1)"><g class="reef-sway-soft" style="animation-delay:-1.8s"><line x1="0" y1="-6" x2="26.0" y2="-18.0" stroke="#79d8be" stroke-width="5" stroke-linecap="round"></line><circle cx="26.0" cy="-18.0" r="3.4" fill="#f4a6bd"></circle><line x1="0" y1="-6" x2="24.1" y2="-26.2" stroke="#79d8be" stroke-width="5" stroke-linecap="round"></line><circle cx="24.1" cy="-26.2" r="3.4" fill="#f4a6bd"></circle><line x1="0" y1="-6" x2="18.7" y2="-33.3" stroke="#79d8be" stroke-width="5" stroke-linecap="round"></line><circle cx="18.7" cy="-33.3" r="3.4" fill="#f4a6bd"></circle><line x1="0" y1="-6" x2="10.6" y2="-38.1" stroke="#79d8be" stroke-width="5" stroke-linecap="round"></line><circle cx="10.6" cy="-38.1" r="3.4" fill="#f4a6bd"></circle><line x1="0" y1="-6" x2="0.9" y2="-40.0" stroke="#79d8be" stroke-width="5" stroke-linecap="round"></line><circle cx="0.9" cy="-40.0" r="3.4" fill="#f4a6bd"></circle><line x1="0" y1="-6" x2="-8.9" y2="-38.7" stroke="#79d8be" stroke-width="5" stroke-linecap="round"></line><circle cx="-8.9" cy="-38.7" r="3.4" fill="#f4a6bd"></circle><line x1="0" y1="-6" x2="-17.4" y2="-34.3" stroke="#79d8be" stroke-width="5" stroke-linecap="round"></line><circle cx="-17.4" cy="-34.3" r="3.4" fill="#f4a6bd"></circle><line x1="0" y1="-6" x2="-23.4" y2="-27.6" stroke="#79d8be" stroke-width="5" stroke-linecap="round"></line><circle cx="-23.4" cy="-27.6" r="3.4" fill="#f4a6bd"></circle><line x1="0" y1="-6" x2="-25.9" y2="-19.5" stroke="#79d8be" stroke-width="5" stroke-linecap="round"></line><circle cx="-25.9" cy="-19.5" r="3.4" fill="#f4a6bd"></circle><line x1="0" y1="-6" x2="-24.7" y2="-24.8" stroke="#79d8be" stroke-width="5" stroke-linecap="round"></line><circle cx="-24.7" cy="-24.8" r="3.4" fill="#f4a6bd"></circle><line x1="0" y1="-6" x2="-19.9" y2="-32.1" stroke="#79d8be" stroke-width="5" stroke-linecap="round"></line><circle cx="-19.9" cy="-32.1" r="3.4" fill="#f4a6bd"></circle><line x1="0" y1="-6" x2="-12.2" y2="-37.4" stroke="#79d8be" stroke-width="5" stroke-linecap="round"></line><circle cx="-12.2" cy="-37.4" r="3.4" fill="#f4a6bd"></circle><line x1="0" y1="-6" x2="-2.7" y2="-39.9" stroke="#79d8be" stroke-width="5" stroke-linecap="round"></line><circle cx="-2.7" cy="-39.9" r="3.4" fill="#f4a6bd"></circle><line x1="0" y1="-6" x2="7.2" y2="-39.1" stroke="#79d8be" stroke-width="5" stroke-linecap="round"></line><circle cx="7.2" cy="-39.1" r="3.4" fill="#f4a6bd"></circle><line x1="0" y1="-6" x2="16.0" y2="-35.3" stroke="#79d8be" stroke-width="5" stroke-linecap="round"></line><circle cx="16.0" cy="-35.3" r="3.4" fill="#f4a6bd"></circle><line x1="0" y1="-6" x2="22.5" y2="-29.0" stroke="#79d8be" stroke-width="5" stroke-linecap="round"></line><circle cx="22.5" cy="-29.0" r="3.4" fill="#f4a6bd"></circle><line x1="0" y1="-6" x2="25.7" y2="-21.1" stroke="#79d8be" stroke-width="5" stroke-linecap="round"></line><circle cx="25.7" cy="-21.1" r="3.4" fill="#f4a6bd"></circle><ellipse cx="0" cy="0" rx="22" ry="9" fill="#79d8be"></ellipse></g></g><g transform="translate(440,514) scale(1)"><g class="reef-sway-soft" style="animation-delay:-0.0s"><line x1="0" y1="-6" x2="26.0" y2="-18.0" stroke="#c7b9e8" stroke-width="5" stroke-linecap="round"></line><circle cx="26.0" cy="-18.0" r="3.4" fill="#ffe0a0"></circle><line x1="0" y1="-6" x2="24.1" y2="-26.2" stroke="#c7b9e8" stroke-width="5" stroke-linecap="round"></line><circle cx="24.1" cy="-26.2" r="3.4" fill="#ffe0a0"></circle><line x1="0" y1="-6" x2="18.7" y2="-33.3" stroke="#c7b9e8" stroke-width="5" stroke-linecap="round"></line><circle cx="18.7" cy="-33.3" r="3.4" fill="#ffe0a0"></circle><line x1="0" y1="-6" x2="10.6" y2="-38.1" stroke="#c7b9e8" stroke-width="5" stroke-linecap="round"></line><circle cx="10.6" cy="-38.1" r="3.4" fill="#ffe0a0"></circle><line x1="0" y1="-6" x2="0.9" y2="-40.0" stroke="#c7b9e8" stroke-width="5" stroke-linecap="round"></line><circle cx="0.9" cy="-40.0" r="3.4" fill="#ffe0a0"></circle><line x1="0" y1="-6" x2="-8.9" y2="-38.7" stroke="#c7b9e8" stroke-width="5" stroke-linecap="round"></line><circle cx="-8.9" cy="-38.7" r="3.4" fill="#ffe0a0"></circle><line x1="0" y1="-6" x2="-17.4" y2="-34.3" stroke="#c7b9e8" stroke-width="5" stroke-linecap="round"></line><circle cx="-17.4" cy="-34.3" r="3.4" fill="#ffe0a0"></circle><line x1="0" y1="-6" x2="-23.4" y2="-27.6" stroke="#c7b9e8" stroke-width="5" stroke-linecap="round"></line><circle cx="-23.4" cy="-27.6" r="3.4" fill="#ffe0a0"></circle><line x1="0" y1="-6" x2="-25.9" y2="-19.5" stroke="#c7b9e8" stroke-width="5" stroke-linecap="round"></line><circle cx="-25.9" cy="-19.5" r="3.4" fill="#ffe0a0"></circle><line x1="0" y1="-6" x2="-24.7" y2="-24.8" stroke="#c7b9e8" stroke-width="5" stroke-linecap="round"></line><circle cx="-24.7" cy="-24.8" r="3.4" fill="#ffe0a0"></circle><line x1="0" y1="-6" x2="-19.9" y2="-32.1" stroke="#c7b9e8" stroke-width="5" stroke-linecap="round"></line><circle cx="-19.9" cy="-32.1" r="3.4" fill="#ffe0a0"></circle><line x1="0" y1="-6" x2="-12.2" y2="-37.4" stroke="#c7b9e8" stroke-width="5" stroke-linecap="round"></line><circle cx="-12.2" cy="-37.4" r="3.4" fill="#ffe0a0"></circle><line x1="0" y1="-6" x2="-2.7" y2="-39.9" stroke="#c7b9e8" stroke-width="5" stroke-linecap="round"></line><circle cx="-2.7" cy="-39.9" r="3.4" fill="#ffe0a0"></circle><line x1="0" y1="-6" x2="7.2" y2="-39.1" stroke="#c7b9e8" stroke-width="5" stroke-linecap="round"></line><circle cx="7.2" cy="-39.1" r="3.4" fill="#ffe0a0"></circle><line x1="0" y1="-6" x2="16.0" y2="-35.3" stroke="#c7b9e8" stroke-width="5" stroke-linecap="round"></line><circle cx="16.0" cy="-35.3" r="3.4" fill="#ffe0a0"></circle><line x1="0" y1="-6" x2="22.5" y2="-29.0" stroke="#c7b9e8" stroke-width="5" stroke-linecap="round"></line><circle cx="22.5" cy="-29.0" r="3.4" fill="#ffe0a0"></circle><line x1="0" y1="-6" x2="25.7" y2="-21.1" stroke="#c7b9e8" stroke-width="5" stroke-linecap="round"></line><circle cx="25.7" cy="-21.1" r="3.4" fill="#ffe0a0"></circle><ellipse cx="0" cy="0" rx="22" ry="9" fill="#c7b9e8"></ellipse></g></g><g transform="translate(800,512) scale(1.05)"><g class="reef-sway-soft" style="animation-delay:-0.0s"><line x1="0" y1="-6" x2="26.0" y2="-18.0" stroke="#79d8be" stroke-width="5" stroke-linecap="round"></line><circle cx="26.0" cy="-18.0" r="3.4" fill="#f4a6bd"></circle><line x1="0" y1="-6" x2="24.1" y2="-26.2" stroke="#79d8be" stroke-width="5" stroke-linecap="round"></line><circle cx="24.1" cy="-26.2" r="3.4" fill="#f4a6bd"></circle><line x1="0" y1="-6" x2="18.7" y2="-33.3" stroke="#79d8be" stroke-width="5" stroke-linecap="round"></line><circle cx="18.7" cy="-33.3" r="3.4" fill="#f4a6bd"></circle><line x1="0" y1="-6" x2="10.6" y2="-38.1" stroke="#79d8be" stroke-width="5" stroke-linecap="round"></line><circle cx="10.6" cy="-38.1" r="3.4" fill="#f4a6bd"></circle><line x1="0" y1="-6" x2="0.9" y2="-40.0" stroke="#79d8be" stroke-width="5" stroke-linecap="round"></line><circle cx="0.9" cy="-40.0" r="3.4" fill="#f4a6bd"></circle><line x1="0" y1="-6" x2="-8.9" y2="-38.7" stroke="#79d8be" stroke-width="5" stroke-linecap="round"></line><circle cx="-8.9" cy="-38.7" r="3.4" fill="#f4a6bd"></circle><line x1="0" y1="-6" x2="-17.4" y2="-34.3" stroke="#79d8be" stroke-width="5" stroke-linecap="round"></line><circle cx="-17.4" cy="-34.3" r="3.4" fill="#f4a6bd"></circle><line x1="0" y1="-6" x2="-23.4" y2="-27.6" stroke="#79d8be" stroke-width="5" stroke-linecap="round"></line><circle cx="-23.4" cy="-27.6" r="3.4" fill="#f4a6bd"></circle><line x1="0" y1="-6" x2="-25.9" y2="-19.5" stroke="#79d8be" stroke-width="5" stroke-linecap="round"></line><circle cx="-25.9" cy="-19.5" r="3.4" fill="#f4a6bd"></circle><line x1="0" y1="-6" x2="-24.7" y2="-24.8" stroke="#79d8be" stroke-width="5" stroke-linecap="round"></line><circle cx="-24.7" cy="-24.8" r="3.4" fill="#f4a6bd"></circle><line x1="0" y1="-6" x2="-19.9" y2="-32.1" stroke="#79d8be" stroke-width="5" stroke-linecap="round"></line><circle cx="-19.9" cy="-32.1" r="3.4" fill="#f4a6bd"></circle><line x1="0" y1="-6" x2="-12.2" y2="-37.4" stroke="#79d8be" stroke-width="5" stroke-linecap="round"></line><circle cx="-12.2" cy="-37.4" r="3.4" fill="#f4a6bd"></circle><line x1="0" y1="-6" x2="-2.7" y2="-39.9" stroke="#79d8be" stroke-width="5" stroke-linecap="round"></line><circle cx="-2.7" cy="-39.9" r="3.4" fill="#f4a6bd"></circle><line x1="0" y1="-6" x2="7.2" y2="-39.1" stroke="#79d8be" stroke-width="5" stroke-linecap="round"></line><circle cx="7.2" cy="-39.1" r="3.4" fill="#f4a6bd"></circle><line x1="0" y1="-6" x2="16.0" y2="-35.3" stroke="#79d8be" stroke-width="5" stroke-linecap="round"></line><circle cx="16.0" cy="-35.3" r="3.4" fill="#f4a6bd"></circle><line x1="0" y1="-6" x2="22.5" y2="-29.0" stroke="#79d8be" stroke-width="5" stroke-linecap="round"></line><circle cx="22.5" cy="-29.0" r="3.4" fill="#f4a6bd"></circle><line x1="0" y1="-6" x2="25.7" y2="-21.1" stroke="#79d8be" stroke-width="5" stroke-linecap="round"></line><circle cx="25.7" cy="-21.1" r="3.4" fill="#f4a6bd"></circle><ellipse cx="0" cy="0" rx="22" ry="9" fill="#79d8be"></ellipse></g></g><g transform="translate(1070,514) scale(1)"><g class="reef-sway-soft" style="animation-delay:-1.8s"><line x1="0" y1="-6" x2="26.0" y2="-18.0" stroke="#c7b9e8" stroke-width="5" stroke-linecap="round"></line><circle cx="26.0" cy="-18.0" r="3.4" fill="#ffe0a0"></circle><line x1="0" y1="-6" x2="24.1" y2="-26.2" stroke="#c7b9e8" stroke-width="5" stroke-linecap="round"></line><circle cx="24.1" cy="-26.2" r="3.4" fill="#ffe0a0"></circle><line x1="0" y1="-6" x2="18.7" y2="-33.3" stroke="#c7b9e8" stroke-width="5" stroke-linecap="round"></line><circle cx="18.7" cy="-33.3" r="3.4" fill="#ffe0a0"></circle><line x1="0" y1="-6" x2="10.6" y2="-38.1" stroke="#c7b9e8" stroke-width="5" stroke-linecap="round"></line><circle cx="10.6" cy="-38.1" r="3.4" fill="#ffe0a0"></circle><line x1="0" y1="-6" x2="0.9" y2="-40.0" stroke="#c7b9e8" stroke-width="5" stroke-linecap="round"></line><circle cx="0.9" cy="-40.0" r="3.4" fill="#ffe0a0"></circle><line x1="0" y1="-6" x2="-8.9" y2="-38.7" stroke="#c7b9e8" stroke-width="5" stroke-linecap="round"></line><circle cx="-8.9" cy="-38.7" r="3.4" fill="#ffe0a0"></circle><line x1="0" y1="-6" x2="-17.4" y2="-34.3" stroke="#c7b9e8" stroke-width="5" stroke-linecap="round"></line><circle cx="-17.4" cy="-34.3" r="3.4" fill="#ffe0a0"></circle><line x1="0" y1="-6" x2="-23.4" y2="-27.6" stroke="#c7b9e8" stroke-width="5" stroke-linecap="round"></line><circle cx="-23.4" cy="-27.6" r="3.4" fill="#ffe0a0"></circle><line x1="0" y1="-6" x2="-25.9" y2="-19.5" stroke="#c7b9e8" stroke-width="5" stroke-linecap="round"></line><circle cx="-25.9" cy="-19.5" r="3.4" fill="#ffe0a0"></circle><line x1="0" y1="-6" x2="-24.7" y2="-24.8" stroke="#c7b9e8" stroke-width="5" stroke-linecap="round"></line><circle cx="-24.7" cy="-24.8" r="3.4" fill="#ffe0a0"></circle><line x1="0" y1="-6" x2="-19.9" y2="-32.1" stroke="#c7b9e8" stroke-width="5" stroke-linecap="round"></line><circle cx="-19.9" cy="-32.1" r="3.4" fill="#ffe0a0"></circle><line x1="0" y1="-6" x2="-12.2" y2="-37.4" stroke="#c7b9e8" stroke-width="5" stroke-linecap="round"></line><circle cx="-12.2" cy="-37.4" r="3.4" fill="#ffe0a0"></circle><line x1="0" y1="-6" x2="-2.7" y2="-39.9" stroke="#c7b9e8" stroke-width="5" stroke-linecap="round"></line><circle cx="-2.7" cy="-39.9" r="3.4" fill="#ffe0a0"></circle><line x1="0" y1="-6" x2="7.2" y2="-39.1" stroke="#c7b9e8" stroke-width="5" stroke-linecap="round"></line><circle cx="7.2" cy="-39.1" r="3.4" fill="#ffe0a0"></circle><line x1="0" y1="-6" x2="16.0" y2="-35.3" stroke="#c7b9e8" stroke-width="5" stroke-linecap="round"></line><circle cx="16.0" cy="-35.3" r="3.4" fill="#ffe0a0"></circle><line x1="0" y1="-6" x2="22.5" y2="-29.0" stroke="#c7b9e8" stroke-width="5" stroke-linecap="round"></line><circle cx="22.5" cy="-29.0" r="3.4" fill="#ffe0a0"></circle><line x1="0" y1="-6" x2="25.7" y2="-21.1" stroke="#c7b9e8" stroke-width="5" stroke-linecap="round"></line><circle cx="25.7" cy="-21.1" r="3.4" fill="#ffe0a0"></circle><ellipse cx="0" cy="0" rx="22" ry="9" fill="#c7b9e8"></ellipse></g></g><g transform="translate(1320,512) scale(1.05)"><g class="reef-sway-soft" style="animation-delay:-0.0s"><line x1="0" y1="-6" x2="26.0" y2="-18.0" stroke="#79d8be" stroke-width="5" stroke-linecap="round"></line><circle cx="26.0" cy="-18.0" r="3.4" fill="#f4a6bd"></circle><line x1="0" y1="-6" x2="24.1" y2="-26.2" stroke="#79d8be" stroke-width="5" stroke-linecap="round"></line><circle cx="24.1" cy="-26.2" r="3.4" fill="#f4a6bd"></circle><line x1="0" y1="-6" x2="18.7" y2="-33.3" stroke="#79d8be" stroke-width="5" stroke-linecap="round"></line><circle cx="18.7" cy="-33.3" r="3.4" fill="#f4a6bd"></circle><line x1="0" y1="-6" x2="10.6" y2="-38.1" stroke="#79d8be" stroke-width="5" stroke-linecap="round"></line><circle cx="10.6" cy="-38.1" r="3.4" fill="#f4a6bd"></circle><line x1="0" y1="-6" x2="0.9" y2="-40.0" stroke="#79d8be" stroke-width="5" stroke-linecap="round"></line><circle cx="0.9" cy="-40.0" r="3.4" fill="#f4a6bd"></circle><line x1="0" y1="-6" x2="-8.9" y2="-38.7" stroke="#79d8be" stroke-width="5" stroke-linecap="round"></line><circle cx="-8.9" cy="-38.7" r="3.4" fill="#f4a6bd"></circle><line x1="0" y1="-6" x2="-17.4" y2="-34.3" stroke="#79d8be" stroke-width="5" stroke-linecap="round"></line><circle cx="-17.4" cy="-34.3" r="3.4" fill="#f4a6bd"></circle><line x1="0" y1="-6" x2="-23.4" y2="-27.6" stroke="#79d8be" stroke-width="5" stroke-linecap="round"></line><circle cx="-23.4" cy="-27.6" r="3.4" fill="#f4a6bd"></circle><line x1="0" y1="-6" x2="-25.9" y2="-19.5" stroke="#79d8be" stroke-width="5" stroke-linecap="round"></line><circle cx="-25.9" cy="-19.5" r="3.4" fill="#f4a6bd"></circle><line x1="0" y1="-6" x2="-24.7" y2="-24.8" stroke="#79d8be" stroke-width="5" stroke-linecap="round"></line><circle cx="-24.7" cy="-24.8" r="3.4" fill="#f4a6bd"></circle><line x1="0" y1="-6" x2="-19.9" y2="-32.1" stroke="#79d8be" stroke-width="5" stroke-linecap="round"></line><circle cx="-19.9" cy="-32.1" r="3.4" fill="#f4a6bd"></circle><line x1="0" y1="-6" x2="-12.2" y2="-37.4" stroke="#79d8be" stroke-width="5" stroke-linecap="round"></line><circle cx="-12.2" cy="-37.4" r="3.4" fill="#f4a6bd"></circle><line x1="0" y1="-6" x2="-2.7" y2="-39.9" stroke="#79d8be" stroke-width="5" stroke-linecap="round"></line><circle cx="-2.7" cy="-39.9" r="3.4" fill="#f4a6bd"></circle><line x1="0" y1="-6" x2="7.2" y2="-39.1" stroke="#79d8be" stroke-width="5" stroke-linecap="round"></line><circle cx="7.2" cy="-39.1" r="3.4" fill="#f4a6bd"></circle><line x1="0" y1="-6" x2="16.0" y2="-35.3" stroke="#79d8be" stroke-width="5" stroke-linecap="round"></line><circle cx="16.0" cy="-35.3" r="3.4" fill="#f4a6bd"></circle><line x1="0" y1="-6" x2="22.5" y2="-29.0" stroke="#79d8be" stroke-width="5" stroke-linecap="round"></line><circle cx="22.5" cy="-29.0" r="3.4" fill="#f4a6bd"></circle><line x1="0" y1="-6" x2="25.7" y2="-21.1" stroke="#79d8be" stroke-width="5" stroke-linecap="round"></line><circle cx="25.7" cy="-21.1" r="3.4" fill="#f4a6bd"></circle><ellipse cx="0" cy="0" rx="22" ry="9" fill="#79d8be"></ellipse></g></g><g transform="translate(130,520)"><g class="reef-sway-soft" style="animation-delay:-0.0s"><path d="M-22.5,0 q-10,-42 -4.0,-70" fill="none" stroke="#79d8be" stroke-width="6" stroke-linecap="round"></path><path d="M-13.5,0 q12,-57.599999999999994 4.8,-96" fill="none" stroke="#79d8be" stroke-width="6" stroke-linecap="round"></path><path d="M-4.5,0 q-14,-73.2 -5.6,-122" fill="none" stroke="#79d8be" stroke-width="6" stroke-linecap="round"></path><path d="M4.5,0 q16,-42 6.4,-70" fill="none" stroke="#79d8be" stroke-width="6" stroke-linecap="round"></path><path d="M13.5,0 q-18,-57.599999999999994 -7.2,-96" fill="none" stroke="#79d8be" stroke-width="6" stroke-linecap="round"></path></g></g><g transform="translate(560,522)"><g class="reef-sway-soft" style="animation-delay:-0.0s"><path d="M-27,0 q-10,-42 -4.0,-70" fill="none" stroke="#9fe6d2" stroke-width="6" stroke-linecap="round"></path><path d="M-18,0 q12,-57.599999999999994 4.8,-96" fill="none" stroke="#9fe6d2" stroke-width="6" stroke-linecap="round"></path><path d="M-9,0 q-14,-73.2 -5.6,-122" fill="none" stroke="#9fe6d2" stroke-width="6" stroke-linecap="round"></path><path d="M0,0 q16,-42 6.4,-70" fill="none" stroke="#9fe6d2" stroke-width="6" stroke-linecap="round"></path><path d="M9,0 q-18,-57.599999999999994 -7.2,-96" fill="none" stroke="#9fe6d2" stroke-width="6" stroke-linecap="round"></path><path d="M18,0 q20,-73.2 8.0,-122" fill="none" stroke="#9fe6d2" stroke-width="6" stroke-linecap="round"></path></g></g><g transform="translate(920,520)"><g class="reef-sway-soft" style="animation-delay:-0.0s"><path d="M-22.5,0 q-10,-42 -4.0,-70" fill="none" stroke="#79d8be" stroke-width="6" stroke-linecap="round"></path><path d="M-13.5,0 q12,-57.599999999999994 4.8,-96" fill="none" stroke="#79d8be" stroke-width="6" stroke-linecap="round"></path><path d="M-4.5,0 q-14,-73.2 -5.6,-122" fill="none" stroke="#79d8be" stroke-width="6" stroke-linecap="round"></path><path d="M4.5,0 q16,-42 6.4,-70" fill="none" stroke="#79d8be" stroke-width="6" stroke-linecap="round"></path><path d="M13.5,0 q-18,-57.599999999999994 -7.2,-96" fill="none" stroke="#79d8be" stroke-width="6" stroke-linecap="round"></path></g></g><g transform="translate(1280,522)"><g class="reef-sway-soft" style="animation-delay:-0.0s"><path d="M-27,0 q-10,-42 -4.0,-70" fill="none" stroke="#9fe6d2" stroke-width="6" stroke-linecap="round"></path><path d="M-18,0 q12,-57.599999999999994 4.8,-96" fill="none" stroke="#9fe6d2" stroke-width="6" stroke-linecap="round"></path><path d="M-9,0 q-14,-73.2 -5.6,-122" fill="none" stroke="#9fe6d2" stroke-width="6" stroke-linecap="round"></path><path d="M0,0 q16,-42 6.4,-70" fill="none" stroke="#9fe6d2" stroke-width="6" stroke-linecap="round"></path><path d="M9,0 q-18,-57.599999999999994 -7.2,-96" fill="none" stroke="#9fe6d2" stroke-width="6" stroke-linecap="round"></path><path d="M18,0 q20,-73.2 8.0,-122" fill="none" stroke="#9fe6d2" stroke-width="6" stroke-linecap="round"></path></g></g><g transform="translate(0,300)"><g class="reef-fish" style="animation-duration:34s;animation-delay:-9s"><path d="M0,0 q14,-9 30,0 q-14,9 -30,0 Z" fill="#ffe0a0"></path><path d="M30,0 l12,-7 0,14 Z" fill="#ffe0a0"></path></g></g><g transform="translate(0,360)"><g class="reef-fish" style="animation-duration:42s;animation-delay:-4s"><path d="M0,0 q11,-7 24,0 q-11,7 -24,0 Z" fill="#f4a6bd"></path><path d="M24,0 l9,-5 0,10 Z" fill="#f4a6bd"></path></g></g></svg>